<?xml version="1.0" encoding="utf-8"?>
<!-- Generator: Adobe Illustrator 27.0.1, SVG Export Plug-In . SVG Version: 6.00 Build 0)  -->
<svg version="1.1" id="Layer_1" xmlns="http://www.w3.org/2000/svg" xmlns:xlink="http://www.w3.org/1999/xlink" x="0px" y="0px"
	 viewBox="0 0 1024 1024" style="enable-background:new 0 0 1024 1024;" xml:space="preserve">
<style type="text/css">
	.st0{fill:#FFFFFF;}
</style>
<g>
	<path class="st0" d="M813.6,834.2c-0.5-13.5-1.9-26.8-4.2-40.1c-4.6-27-12.8-53-24.5-77.8c-20.5-43.3-49.5-79.9-86.8-109.9
		c-29.4-23.6-62-41.2-97.8-53c-2.2-0.7-4.5-1.5-7-2.3c0.6-0.3,0.9-0.5,1.2-0.7c16.1-7.9,30.9-17.8,44.5-29.5
		c19.7-17.1,35.7-37.1,47.8-60.3c17-32.6,24.6-67.3,22.8-104.1c-0.5-11.1-1.9-22.1-4.3-33c-8.2-37.6-25.7-70.4-52.2-98.3
		c-11.5-12.2-24.5-22.7-38.6-31.7c-30.2-19.2-63.3-29.9-99-32.3c-9.9-0.7-19.8-0.6-29.7,0.2c-11.1,0.8-22.1,2.5-32.9,5.1
		c-36.1,8.7-67.7,25.7-94.8,51.1c-17.6,16.6-32,35.6-42.8,57.3c-16,31.9-23.1,65.7-21.4,101.3c0.5,9.8,1.6,19.5,3.5,29.1
		c7.4,37.8,24.3,70.9,50.3,99.3c17.4,19,37.8,34.2,60.9,45.7c0.5,0.2,1.1,0.3,1.4,1c-7.3,2.3-14.6,4.7-21.7,7.5
		c-7.2,2.8-14.3,5.8-21.2,9.1c-39.5,18.8-73.6,44.7-102.3,77.7c-15.4,17.7-28.5,36.8-39.5,57.5c-13.6,25.6-23.3,52.5-29.2,80.9
		c-2.6,12.5-4.4,25-5.3,37.7c-0.3,4.8-0.7,9.6-0.9,14.5c-0.1,4.4-0.6,8.9,0.2,13.3c1.5,8.5,9.6,14.5,18.6,13.8
		c8.5-0.7,15.4-7.9,15.7-16.3c0.2-5.6,0.3-11.3,0.6-16.9c0.5-8.4,1.3-16.8,2.6-25c2.6-16.8,6.7-33.2,12.4-49.3
		c13.1-36.8,33.1-69.2,60-97.5c17.9-18.8,38-34.7,60.3-47.8c19.2-11.3,39.4-20.1,60.8-26.5c15.1-4.5,30.4-7.8,46-9.7
		c10.1-1.2,20.1-2.1,30.3-2c0.7,0,1.3-0.2,1.9-0.1c3.8,0.1,5.4,0,5.9,0c0.4,0,0.9,0.1,1.3,0.2c3.6,0,7.1,0.1,10.7,0.3
		c11.9,0.6,23.7,2,35.4,4.2c24.5,4.4,47.9,12,70.3,22.8c36.7,17.7,68.1,42.2,94.1,73.6c22.6,27.3,39.2,58,49.9,91.8
		c5.6,17.7,9.2,35.7,11.1,54.1c0.9,9.1,1.2,18.3,1.4,27.4c0.2,9.6,7.8,16.9,17.6,16.9c9.3-0.1,17-7.7,17-17.1
		C813.8,842.2,813.8,838.2,813.6,834.2z M475.6,535.4c-18.4-2.6-35.8-8.3-52.3-16.5c-7.1-3.5-13.9-7.7-20.5-12.2
		c-15.2-10.5-28.4-23-39.5-37.6c-12-15.7-21-33-26.9-51.9c-4.5-14.3-7-28.9-7.7-43.8c-0.5-10,0-19.9,1.4-29.8
		c2.9-20.8,9.3-40.5,19.5-58.9s23.3-34.5,39.4-48.1c14.2-12,29.9-21.5,47.1-28.5c18.3-7.4,37.3-11.5,56.9-12.5
		c7.5-0.4,15.1-0.3,22.6,0.3c8.2,0.7,16.2,1.9,24.2,3.7c17.6,3.9,34.3,10.4,49.8,19.5c14,8.2,26.6,18.1,37.8,29.9
		c6.7,7,12.8,14.5,18.2,22.5c9.6,14.1,16.8,29.3,21.8,45.7c4.2,13.9,6.6,28.1,7.2,42.6c0.3,7,0,14-0.6,21
		c-0.8,8.9-2.2,17.6-4.3,26.2c-3.8,15.4-9.6,29.9-17.5,43.6c-10,17.4-22.7,32.6-38,45.5c-11.6,9.8-24.2,17.9-38,24.4
		c-14,6.6-28.7,11.3-44,14c-9.8,1.7-19.6,2.5-29.5,2.8"/>
	<path class="st0" d="M207.1,877.8c-15.3,0-28.9-11-31.6-25.9c-0.9-5.1-0.7-9.6-0.5-13.6c0.2-6.5,0.5-10.3,0.7-14.1l0.2-3.7
		c0.9-13,2.8-26.3,5.6-39.6c6.1-29.5,16.4-58.1,30.6-84.8c11.6-21.7,25.5-42,41.4-60.3c29.8-34.3,65.9-61.7,107.1-81.3
		c4.9-2.4,10-4.6,15.1-6.7c-14.5-9.8-27.4-20.9-38.9-33.5c-27.9-30.5-46-66.3-53.9-106.3c-2-10.4-3.2-20.7-3.7-31.2
		c-1.8-38,5.9-74.5,22.9-108.6c11.5-23,27-43.6,45.9-61.4c28.8-27,62.9-45.4,101.4-54.7c11.1-2.7,22.9-4.5,35.2-5.4
		c10.6-0.8,21.2-0.9,31.8-0.2c38.2,2.6,73.9,14.2,105.9,34.6c15.2,9.7,29.1,21.1,41.4,34c28.4,29.9,47.2,65.4,55.9,105.3
		c2.5,11.3,4,23.2,4.6,35.4c1.8,39.2-6.4,76.7-24.5,111.5c-12.7,24.4-29.9,46.1-51.2,64.6c-6.6,5.8-13.6,11.1-20.9,16.1
		c29.5,12.2,55.8,27.8,79.7,47c39.1,31.4,69.7,70.1,90.9,115.1c12.2,25.9,20.8,53.3,25.6,81.5c2.4,14.1,3.9,28.2,4.4,42.1l0,0
		c0.1,4.1,0.2,8.3,0.2,12.4c0,17.4-14.2,31.6-31.6,31.7c-16.8,0.7-32-13.6-32.3-31.2c-0.2-8.8-0.4-17.5-1.3-26.2
		c-1.8-17.5-5.3-34.8-10.5-51.2c-10.1-31.9-26-61.1-47.2-86.9c-24.5-29.5-54.5-53-89.2-69.8c-21.1-10.2-43.5-17.4-66.6-21.6
		c-11.1-2-22.3-3.4-33.6-4c-3.3-0.1-6.7-0.2-10-0.3c0.7-0.3-1-0.1-5-0.1c-0.7,0-1.5,0-2.4,0c-11.2,0.1-20.7,0.9-30.2,2
		c-14.5,1.8-29.2,4.9-43.6,9.2c-20.1,6-39.4,14.5-57.6,25.1c-21.1,12.4-40.3,27.6-57.1,45.3c-25.4,26.7-44.6,57.8-56.9,92.3
		c-5.3,14.9-9.2,30.5-11.7,46.6c-1.2,7.9-2,15.7-2.5,23.6l-0.5,16.6c-0.5,15.8-13.3,29.2-29.1,30.4
		C208.8,877.8,208,877.8,207.1,877.8z M511.8,557.6c1.6,0,3.7,0.1,5.8,0.2c12.6,0.7,25,2.1,37.3,4.4c25.7,4.7,50.6,12.7,74.1,24
		c38.5,18.5,71.8,44.6,99,77.5c23.7,28.6,41.4,61.2,52.6,96.7c5.8,18.3,9.7,37.5,11.7,57c1,9.5,1.3,19.1,1.5,28.6
		c0,1.6,1.1,2.5,2.7,2.5l0,0c2.6-6.2,2.5-10,2.3-13.8l0,0c-0.5-12.5-1.8-25.4-4-38.2c-4.3-25.6-12.2-50.5-23.2-74
		c-19.3-40.9-47.2-76.2-82.8-104.8c-27.8-22.3-59.2-39.3-93.2-50.5l-38.8-12.9l29.3-16.2c16.7-8.3,30.6-17.6,43.1-28.4
		c18.4-16,33.4-34.9,44.4-56c15.6-30.1,22.8-62.6,21.2-96.6c-0.5-10.5-1.8-20.8-3.9-30.5c-7.5-34.6-23.9-65.3-48.5-91.4
		c-10.6-11.1-22.7-21-35.9-29.4c-27.8-17.7-58.8-27.8-92.2-30c-9.1-0.6-18.4-0.5-27.6,0.2c-10.8,0.8-20.8,2.4-30.5,4.7
		c-33.5,8.1-63.2,24.1-88.2,47.5c-16.4,15.4-29.8,33.3-39.7,53.2c-14.8,29.5-21.5,61.2-19.9,94.1c0.4,9.1,1.5,18.1,3.2,27
		c6.8,34.7,22.5,65.7,46.7,92.2c16,17.4,35,31.7,56.6,42.5l6.7,2.4l6.8,21.2l-14.2,4.5c-7,2.2-14,4.5-20.8,7.2
		c-6.9,2.7-13.6,5.5-20.2,8.7c-37.6,17.9-70.4,42.8-97.6,74.1c-14.5,16.6-27.1,35.1-37.6,54.8c-12.8,24.2-22.2,50.1-27.8,77
		c-2.5,12.1-4.2,24.1-5.1,35.8l-0.3,3.6c-0.2,3.4-0.5,6.8-0.6,10.2c-0.2,5.9-0.3,8.5,0,10.3h19.9l-14.6-0.5l0.1-4.5
		c0.1-4.3,0.2-8.5,0.5-12.8c0.5-8.9,1.4-17.7,2.7-26.4c2.7-17.8,7.1-35.3,13-51.9c13.7-38.4,35-73,63.2-102.7
		c18.7-19.6,40-36.6,63.5-50.3c20.1-11.8,41.7-21.2,64-27.9c16-4.8,32.2-8.2,48.5-10.2c10.7-1.3,21.8-1.3,32.1-2.1l9.2-0.6l2.7,0.9
		C509.6,557.6,510.5,557.6,511.8,557.6z M499.3,552.2l-6.5-0.2c-3.9,0.4-9.9-0.5-15.2-1.4l-4.1-0.6c-19.4-2.8-38.5-8.8-56.8-17.9
		c-7.8-3.9-15.1-8.3-22.3-13.3c-16.5-11.4-30.9-25.1-42.8-40.8c-13-17.1-22.8-36.1-29.2-56.3c-4.8-15.2-7.6-31.2-8.4-47.5
		c-0.5-10.6,0-21.5,1.5-32.5c3.1-22.8,10.3-44.3,21.1-64c11.1-20,25.5-37.5,42.8-52.2c15.4-13,32.6-23.4,51-30.9
		c19.5-7.9,40.3-12.5,61.7-13.6c8.3-0.4,16.5-0.3,24.7,0.4c8.8,0.8,17.5,2,26.1,3.9c19.2,4.3,37.4,11.4,54,21.2
		c15.3,9,29.1,19.9,41,32.4c7.3,7.7,14,15.9,19.7,24.4c10.4,15.4,18.3,32,23.7,49.6c4.5,14.8,7.1,30.3,7.8,46.2
		c0.3,7.6,0,15.3-0.6,22.9c-0.8,9.6-2.3,19.1-4.7,28.5c-4.2,16.8-10.6,32.7-19.1,47.4c-10.9,18.9-24.8,35.5-41.2,49.4
		c-12.7,10.7-26.5,19.6-41.1,26.5c-15.2,7.2-31.3,12.3-47.7,15.2h-0.1c-10.5,1.9-21,2.7-31.6,3L499.3,552.2z M498.5,522.9l3.7,0.1
		c9.3-0.4,18.5-1.1,27.6-2.7c13.9-2.5,27.4-6.8,40.3-12.9c12.3-5.8,24-13.4,34.8-22.4c13.9-11.7,25.5-25.7,34.8-41.6
		c7.1-12.3,12.5-25.7,16-39.8c2-7.9,3.2-15.8,3.9-23.9c0.5-6.4,0.8-12.8,0.5-19.1c-0.6-13.5-2.8-26.6-6.6-39
		c-4.5-14.8-11.2-28.8-19.9-41.7c-5-7.4-10.6-14.2-16.7-20.7c-10.1-10.6-21.7-19.8-34.6-27.4c-14.1-8.3-29.4-14.3-45.6-17.9
		c-7.4-1.7-14.8-2.7-22.3-3.4c-6.8-0.7-13.8-0.7-20.6-0.3c-18.1,0.9-35.6,4.8-52.1,11.5c-15.6,6.3-30.1,15.1-43.2,26.1
		c-14.6,12.3-26.7,27.1-36,44c-9.1,16.5-15.1,34.6-17.8,53.8c-1.3,9.2-1.7,18.4-1.3,27.1c0.7,13.8,3,27.2,7,40
		c5.4,17,13.7,33,24.6,47.5c10,13.2,22.2,24.8,36.1,34.4c6,4.2,12.2,8,18.7,11.2c15.5,7.7,31.7,12.8,47.9,15.2l4.7,0.7
		c4.4,0.7,8.4,1.4,11.7,1.1"/>
</g>
</svg>
