<?xml version="1.0" encoding="utf-8"?>
<!-- Generator: Adobe Illustrator 27.0.1, SVG Export Plug-In . SVG Version: 6.00 Build 0)  -->
<svg version="1.1" id="Layer_1" xmlns="http://www.w3.org/2000/svg" xmlns:xlink="http://www.w3.org/1999/xlink" x="0px" y="0px"
	 viewBox="0 0 1024 1024" style="enable-background:new 0 0 1024 1024;" xml:space="preserve">
<style type="text/css">
	.st0{fill:#FFFFFF;}
</style>
<path class="st0" d="M848.7,759c-54.5-41-85.8-103.5-85.8-171.7v-143c0-119.8-80.8-221.1-190.7-252.3v-33.8
	c0-39.4-32.1-71.5-71.5-71.5s-71.5,32.1-71.5,71.5V192c-109.9,31.2-190.7,132.5-190.7,252.3v143c0,68.1-31.3,130.7-85.8,171.7
	c-8.2,6.2-11.5,16.9-8.3,26.6c3.2,9.7,12.4,16.3,22.6,16.3h216.9c-1.6,7.8-2.4,15.8-2.4,23.8c0,65.7,53.5,119.2,119.2,119.2
	s119.2-53.5,119.2-119.2c0-8-0.8-16-2.4-23.8h216.9c10.2,0,19.3-6.6,22.6-16.3C860.2,775.9,856.8,765.2,848.7,759L848.7,759
	L848.7,759z M476.8,158.3c0-13.2,10.7-23.8,23.8-23.8c13.2,0,23.8,10.7,23.8,23.8v24.9c-7.9-0.7-15.8-1.1-23.8-1.1s-16,0.4-23.8,1.1
	V158.3L476.8,158.3z M572.2,825.7c0,39.4-32.1,71.5-71.5,71.5s-71.5-32.1-71.5-71.5c0-8.2,1.4-16.2,4.1-23.8h134.8
	C570.7,809.5,572.2,817.6,572.2,825.7z M226.2,754.2c12.2-14.7,22.7-30.8,31.4-47.7c19-37.1,28.6-77.2,28.6-119.1v-143
	c0-118.3,96.2-214.5,214.5-214.5s214.5,96.3,214.5,214.5v143c0,42,9.6,82,28.6,119.1c8.7,17,19.3,33,31.4,47.7H226.2L226.2,754.2z"
	/>
</svg>
