<?xml version="1.0" encoding="utf-8"?>
<!-- Generator: Adobe Illustrator 27.0.1, SVG Export Plug-In . SVG Version: 6.00 Build 0)  -->
<svg version="1.1" id="Layer_1" xmlns="http://www.w3.org/2000/svg" xmlns:xlink="http://www.w3.org/1999/xlink" x="0px" y="0px"
	 viewBox="0 0 1024 1024" style="enable-background:new 0 0 1024 1024;" xml:space="preserve">
<style type="text/css">
	.st0{fill:#FFFFFF;}
</style>
<path class="st0" d="M512,985.3c-63.9,0-125.9-12.5-184.2-37.2c-56.4-23.8-107-58-150.4-101.4c-43.5-43.5-77.6-94.1-101.4-150.4
	C51.3,637.9,38.7,575.9,38.7,512s12.5-125.9,37.2-184.2c23.8-56.4,58-107,101.4-150.4s94.1-77.6,150.4-101.4
	C386.1,51.3,448.1,38.7,512,38.7s125.9,12.5,184.2,37.2c56.4,23.8,107,58,150.4,101.4c43.5,43.5,77.6,94.1,101.4,150.4
	c24.7,58.4,37.2,120.4,37.2,184.2s-12.5,125.9-37.2,184.2c-23.8,56.4-58,107-101.4,150.4c-43.5,43.5-94.1,77.6-150.4,101.4
	C637.9,972.7,575.9,985.3,512,985.3z M512,108.7c-222.4,0-403.3,180.9-403.3,403.3S289.6,915.3,512,915.3S915.3,734.4,915.3,512
	S734.4,108.7,512,108.7z"/>
<g>
	<rect x="283" y="477.1" class="st0" width="458" height="69.8"/>
	
		<rect x="283" y="477.1" transform="matrix(-1.836970e-16 1 -1 -1.836970e-16 1024 1.136868e-13)" class="st0" width="458" height="69.8"/>
</g>
</svg>
