<?xml version="1.0" encoding="utf-8"?>
<!-- Generator: Adobe Illustrator 27.0.1, SVG Export Plug-In . SVG Version: 6.00 Build 0)  -->
<svg version="1.1" id="Layer_1" xmlns="http://www.w3.org/2000/svg" xmlns:xlink="http://www.w3.org/1999/xlink" x="0px" y="0px"
	 viewBox="0 0 1024 1024" style="enable-background:new 0 0 1024 1024;" xml:space="preserve">
<style type="text/css">
	.st0{fill:#FFFFFF;stroke:#FFFFFF;stroke-width:20;stroke-miterlimit:10;}
</style>
<g>
	<path class="st0" d="M543.1,179.2c5.2,0,9.7,3.7,10.7,8.8l14.1,70.1c2.4,12.1,11.1,22,22.8,26.1c8.6,3,17.3,6.6,25.8,10.7
		c4.8,2.3,10,3.5,15.2,3.5c6.8,0,13.5-2,19.3-5.8l59.8-39.8c2.2-1.4,4.4-1.8,5.9-1.8c2.1,0,5.1,0.6,7.8,3.2l44.1,44.1
		c3.6,3.6,4.2,9.4,1.3,13.7L730,371.6c-6.8,10.3-7.8,23.4-2.4,34.5c4.3,8.8,7.9,17.5,10.8,25.9c4.1,11.6,14,20.3,26.1,22.7
		l70.2,14.1c0.4,0.1,0.8,0.2,1.2,0.2c4.5,1.5,7.7,5.6,7.7,10.4v62.3c0,5.2-3.7,9.7-8.8,10.7l-70.2,14c-12.1,2.4-22.1,11.1-26.1,22.8
		c-3,8.6-6.6,17.3-10.7,25.8c-5.4,11.1-4.5,24.3,2.4,34.5l39.8,59.6c2.9,4.3,2.3,10.1-1.4,13.7l-44,44c-2.1,2.1-4.9,3.3-7.8,3.3
		c-2.1,0-4.2-0.7-6-1.8L651,728.5c-5.8-3.9-12.6-5.9-19.3-5.9c-5.2,0-10.3,1.1-15.1,3.5c-8.8,4.3-17.5,7.9-25.8,10.8
		c-11.7,4-20.3,14-22.8,26.1l-14.1,70.2c-1,5.1-5.5,8.8-10.7,8.8h-62.3c-5.2,0-9.7-3.7-10.7-8.8l-14-70.2
		c-2.4-12.1-11.1-22.1-22.8-26.1c-8.6-3-17.3-6.6-25.7-10.7c-4.8-2.3-10-3.5-15.2-3.5c-6.8,0-13.5,2-19.3,5.9l-59.5,39.7
		c-1.9,1.2-4,1.9-6.1,1.9s-5.1-0.6-7.8-3.2l-44.1-44.1c-3.6-3.6-4.2-9.4-1.3-13.7l39.7-59.6c6.9-10.3,7.7-23.4,2.3-34.6
		c-4.1-8.5-7.7-17.1-10.7-25.7c-4-11.7-14-20.3-26.1-22.8l-70.2-14.1c-5.1-1-8.8-5.5-8.8-10.7v-62.3c0-5.2,3.7-9.7,8.8-10.7l70.2-14
		c12.1-2.4,22.1-11.1,26.1-22.8c3-8.6,6.6-17.3,10.7-25.7c5.4-11.1,4.5-24.3-2.4-34.6L254.2,312c-2.9-4.3-2.3-10.1,1.4-13.7
		l44.1-44.1c2.6-2.6,5.7-3.2,7.8-3.2c2.2,0,4.2,0.6,6,1.8l59.6,39.8c5.8,3.9,12.6,5.9,19.4,5.9c5.2,0,10.4-1.1,15.2-3.5
		c8.4-4.1,17.1-7.7,25.7-10.7c11.6-4.1,20.3-14,22.7-26.1l14.1-70.1c1-5.1,5.5-8.8,10.7-8.8L543.1,179.2 M512,685
		c96.2,0,174.4-78.2,174.4-174.4S608.1,336.1,512,336.1s-174.4,78.2-174.4,174.4S415.8,685,512,685 M543.1,144.3h-62.3
		c-21.8,0-40.6,15.4-44.9,36.8l-14.1,70.1c-10.1,3.5-20,7.7-29.5,12.3l-59.6-39.8c-7.8-5.2-16.6-7.7-25.4-7.7
		c-11.9,0-23.5,4.5-32.4,13.4l-44.1,44.1c-15.4,15.4-17.8,39.6-5.7,57.8l39.7,59.6c-4.6,9.5-8.8,19.4-12.3,29.5l-70.2,14
		c-21.4,4.3-36.8,23.1-36.8,44.9v62.3c0,21.8,15.4,40.6,36.8,44.9l70.2,14.1c3.5,10.2,7.6,20,12.3,29.5l-39.7,59.6
		c-12.1,18.1-9.7,42.4,5.7,57.8l44.1,44.1c8.9,8.9,20.6,13.4,32.4,13.4c8.8,0,17.6-2.6,25.4-7.7l59.6-39.8
		c9.5,4.6,19.4,8.7,29.5,12.3l14,70.2c4.2,21.4,23.1,36.8,44.9,36.8H543c21.8,0,40.6-15.4,44.9-36.9l14.1-70.2
		c10.2-3.5,20-7.7,29.5-12.3l59.6,39.8c7.7,5.2,16.6,7.7,25.3,7.7c11.9,0,23.5-4.6,32.4-13.4l44.1-44.1
		c15.4-15.4,17.8-39.6,5.7-57.8L758.8,630c4.6-9.6,8.8-19.4,12.3-29.6l70.2-14c21.4-4.2,36.8-23.1,36.8-44.9v-62.3
		c0-21.8-15.4-40.6-36.9-44.9v0.1L771,420.3c-3.5-10.1-7.7-20-12.3-29.5l39.8-59.6c12.1-18.2,9.7-42.4-5.7-57.8L749,229.5
		c-8.9-8.8-20.6-13.4-32.4-13.4c-8.8,0-17.6,2.5-25.3,7.7l-59.6,39.7c-9.6-4.6-19.4-8.8-29.6-12.3L588,181.1
		C583.7,159.7,564.9,144.3,543.1,144.3L543.1,144.3z M512,650.1c-77.1,0-139.5-62.5-139.5-139.5S434.9,371,512,371
		s139.5,62.5,139.5,139.5S589,650.1,512,650.1L512,650.1z"/>
</g>
</svg>
