<?xml version="1.0" encoding="utf-8"?>
<!-- Generator: Adobe Illustrator 27.0.1, SVG Export Plug-In . SVG Version: 6.00 Build 0)  -->
<svg version="1.1" id="Layer_1" xmlns="http://www.w3.org/2000/svg" xmlns:xlink="http://www.w3.org/1999/xlink" x="0px" y="0px"
	 viewBox="0 0 1024 1024" style="enable-background:new 0 0 1024 1024;" xml:space="preserve">
<style type="text/css">
	.st0{fill:#FFFFFF;}
</style>
<path class="st0" d="M809.2,412.2c-25.1-26.6-58.4-41.3-93.9-41.3H306.6c-35.5,0-68.8,14.7-93.8,41.2c-25.2,26.6-39.1,62-39.1,99.9
	v271.4c0,37.8,13.9,73.3,38.9,99.8c25,26.6,58.4,41.4,93.9,41.4h408.6c35.5,0,69-14.7,93.9-41.4c25.1-26.6,38.8-62,38.8-99.8V512
	C848,474.2,834.2,438.8,809.2,412.2z M786.8,783.4c0,20.4-7.4,39.5-20.9,53.8c-13.5,14.5-31.5,22.3-50.7,22.3H306.6
	c-19.1,0-37.2-7.9-50.8-22.4c-13.5-14.3-20.9-33.4-20.9-53.8l0-271.4c0-20.3,7.4-39.5,21-53.8c13.5-14.3,31.5-22.3,50.7-22.3h408.6
	c19.1,0,37.2,7.9,50.7,22.3c13.5,14.3,20.9,33.5,20.9,53.8L786.8,783.4L786.8,783.4z M511,164.5c95.8,0,173.7,82.8,173.7,184.6h61.2
	c0-137.6-105.4-249.6-234.9-249.6c-129.5,0-234.9,112-234.9,249.6h61.2C337.2,247.3,415.1,164.5,511,164.5z M480.4,729.1h61.2V620.5
	h-61.2V729.1z"/>
</svg>
