<?xml version="1.0" encoding="utf-8"?>
<!-- Generator: Adobe Illustrator 27.0.1, SVG Export Plug-In . SVG Version: 6.00 Build 0)  -->
<svg version="1.1" id="Layer_1" xmlns="http://www.w3.org/2000/svg" xmlns:xlink="http://www.w3.org/1999/xlink" x="0px" y="0px"
	 viewBox="0 0 1024 1024" style="enable-background:new 0 0 1024 1024;" xml:space="preserve">
<style type="text/css">
	.st0{fill:#FFFFFF;}
</style>
<path class="st0" d="M512,64c-191,0-354.1,119.6-418.5,288h69.3c18.8-41,44.9-78.7,77.7-111.5C313,167.9,409.4,128,512,128
	c102.6,0,199,39.9,271.5,112.5C856.1,313,896,409.4,896,512c0,102.6-39.9,199-112.5,271.5C711,856.1,614.5,896,512,896
	c-102.6,0-199-39.9-271.5-112.5c-32.8-32.8-58.9-70.6-77.7-111.5H93.4C157.9,840.4,320.9,960,512,960c247.4,0,448-200.6,448-448
	C960,264.6,759.4,64,512,64z"/>
<path class="st0" d="M413.7,647.8L459,693l181-181L459,331l-45.3,45.3L517.5,480H64v64h453.5L413.7,647.8z"/>
</svg>
